<mxfile host="app.diagrams.net" modified="2023-06-16T21:16:41.189Z" agent="Mozilla/5.0 (Macintosh; Intel Mac OS X 10_15_7) AppleWebKit/605.1.15 (KHTML, like Gecko) Version/16.5 Safari/605.1.15" etag="TqKxmfoMp99JcgQUwvFK" version="21.4.0" type="github">
  <diagram name="Page-1" id="gf-BKuZjwV0Vpxad8Ld4">
    <mxGraphModel dx="1290" dy="664" grid="1" gridSize="10" guides="1" tooltips="1" connect="1" arrows="1" fold="1" page="1" pageScale="1" pageWidth="1700" pageHeight="1100" math="0" shadow="0">
      <root>
        <mxCell id="0" />
        <mxCell id="1" parent="0" />
        <mxCell id="UGLuprviDHtJ66Gd5Cty-15" value="" style="rounded=1;arcSize=10;dashed=0;fillColor=default;gradientColor=none;strokeWidth=2;allowArrows=1;" parent="1" vertex="1">
          <mxGeometry x="1970.5" y="720" width="164" height="320" as="geometry" />
        </mxCell>
        <mxCell id="UGLuprviDHtJ66Gd5Cty-1" value="" style="rounded=1;arcSize=10;dashed=0;fillColor=none;gradientColor=none;strokeWidth=2;" parent="1" vertex="1">
          <mxGeometry x="1312.5" y="340" width="900" height="780" as="geometry" />
        </mxCell>
        <mxCell id="UGLuprviDHtJ66Gd5Cty-2" value="" style="rounded=1;arcSize=10;dashed=1;fillColor=none;gradientColor=none;dashPattern=8 3 1 3;strokeWidth=2;" parent="1" vertex="1">
          <mxGeometry x="1632.5" y="785" width="480" height="125" as="geometry" />
        </mxCell>
        <mxCell id="UGLuprviDHtJ66Gd5Cty-61" value="" style="endArrow=classic;html=1;rounded=0;exitX=0.5;exitY=1;exitDx=0;exitDy=0;entryX=0.5;entryY=1;entryDx=0;entryDy=0;entryPerimeter=0;exitPerimeter=0;" parent="1" edge="1">
          <mxGeometry width="50" height="50" relative="1" as="geometry">
            <mxPoint x="677.75" y="1000" as="sourcePoint" />
            <mxPoint x="1697.75" y="1000" as="targetPoint" />
            <Array as="points">
              <mxPoint x="680" y="1240" />
              <mxPoint x="1698" y="1240" />
            </Array>
          </mxGeometry>
        </mxCell>
        <mxCell id="UGLuprviDHtJ66Gd5Cty-63" value="Cross Region Replication" style="edgeLabel;html=1;align=center;verticalAlign=middle;resizable=0;points=[];" parent="UGLuprviDHtJ66Gd5Cty-61" vertex="1" connectable="0">
          <mxGeometry x="-0.0324" relative="1" as="geometry">
            <mxPoint as="offset" />
          </mxGeometry>
        </mxCell>
        <mxCell id="ibBu3tWBld4mr-qCmF8P-2" value="" style="rounded=1;arcSize=10;dashed=0;fillColor=none;gradientColor=none;strokeWidth=2;" parent="1" vertex="1">
          <mxGeometry x="292.5" y="340" width="900" height="780" as="geometry" />
        </mxCell>
        <mxCell id="ibBu3tWBld4mr-qCmF8P-3" value="" style="rounded=1;arcSize=10;dashed=1;fillColor=none;gradientColor=none;dashPattern=8 3 1 3;strokeWidth=2;" parent="1" vertex="1">
          <mxGeometry x="612.5" y="785" width="480" height="125" as="geometry" />
        </mxCell>
        <mxCell id="ibBu3tWBld4mr-qCmF8P-4" value="" style="rounded=1;arcSize=10;dashed=1;fillColor=none;gradientColor=none;dashPattern=8 3 1 3;strokeWidth=2;" parent="1" vertex="1">
          <mxGeometry x="610" y="530" width="462.5" height="95" as="geometry" />
        </mxCell>
        <mxCell id="ibBu3tWBld4mr-qCmF8P-5" value="" style="rounded=1;arcSize=10;dashed=1;strokeColor=#F59D56;fillColor=none;gradientColor=none;dashPattern=8 4;strokeWidth=2;" parent="1" vertex="1">
          <mxGeometry x="332.5" y="400" width="460" height="680" as="geometry" />
        </mxCell>
        <mxCell id="ibBu3tWBld4mr-qCmF8P-6" value="" style="rounded=1;arcSize=10;dashed=0;fillColor=none;gradientColor=none;strokeWidth=2;" parent="1" vertex="1">
          <mxGeometry x="592.5" y="440" width="160" height="200" as="geometry" />
        </mxCell>
        <mxCell id="ibBu3tWBld4mr-qCmF8P-7" value="" style="outlineConnect=0;dashed=0;verticalLabelPosition=bottom;verticalAlign=top;align=center;html=1;shape=mxgraph.aws3.internet_gateway;fillColor=#F58536;gradientColor=none;" parent="1" vertex="1">
          <mxGeometry x="1074.5" y="315" width="40" height="40" as="geometry" />
        </mxCell>
        <mxCell id="ibBu3tWBld4mr-qCmF8P-8" value="" style="outlineConnect=0;dashed=0;verticalLabelPosition=bottom;verticalAlign=top;align=center;html=1;shape=mxgraph.aws3.vpc_nat_gateway;fillColor=#F58534;gradientColor=none;" parent="1" vertex="1">
          <mxGeometry x="632.5" y="457.5" width="40" height="40" as="geometry" />
        </mxCell>
        <mxCell id="ibBu3tWBld4mr-qCmF8P-9" value="" style="dashed=0;html=1;shape=mxgraph.aws3.virtual_private_cloud;fillColor=#F58536;gradientColor=none;dashed=0;" parent="1" vertex="1">
          <mxGeometry x="387.5" y="315" width="52" height="36" as="geometry" />
        </mxCell>
        <mxCell id="ibBu3tWBld4mr-qCmF8P-10" value="" style="rounded=1;arcSize=10;dashed=1;strokeColor=#F59D56;fillColor=none;gradientColor=none;dashPattern=8 4;strokeWidth=2;" parent="1" vertex="1">
          <mxGeometry x="912.5" y="400" width="240" height="680" as="geometry" />
        </mxCell>
        <mxCell id="ibBu3tWBld4mr-qCmF8P-11" value="" style="dashed=0;html=1;shape=mxgraph.aws3.permissions;fillColor=#D9A741;gradientColor=none;dashed=0;" parent="1" vertex="1">
          <mxGeometry x="608.5" y="420" width="30" height="30" as="geometry" />
        </mxCell>
        <mxCell id="ibBu3tWBld4mr-qCmF8P-12" value="" style="rounded=1;arcSize=10;dashed=0;fillColor=none;gradientColor=none;strokeWidth=2;" parent="1" vertex="1">
          <mxGeometry x="952.5" y="440" width="160" height="200" as="geometry" />
        </mxCell>
        <mxCell id="ibBu3tWBld4mr-qCmF8P-13" value="" style="dashed=0;html=1;shape=mxgraph.aws3.permissions;fillColor=#D9A741;gradientColor=none;dashed=0;" parent="1" vertex="1">
          <mxGeometry x="972.5" y="420" width="30" height="30" as="geometry" />
        </mxCell>
        <mxCell id="ibBu3tWBld4mr-qCmF8P-14" value="" style="rounded=1;arcSize=10;dashed=0;fillColor=none;gradientColor=none;strokeWidth=2;" parent="1" vertex="1">
          <mxGeometry x="592.5" y="720" width="160" height="340" as="geometry" />
        </mxCell>
        <mxCell id="ibBu3tWBld4mr-qCmF8P-15" value="" style="dashed=0;html=1;shape=mxgraph.aws3.permissions;fillColor=#D9A741;gradientColor=none;dashed=0;" parent="1" vertex="1">
          <mxGeometry x="608.5" y="700" width="30" height="30" as="geometry" />
        </mxCell>
        <mxCell id="ibBu3tWBld4mr-qCmF8P-16" value="" style="rounded=1;arcSize=10;dashed=0;fillColor=none;gradientColor=none;strokeWidth=2;" parent="1" vertex="1">
          <mxGeometry x="950.5" y="720" width="164" height="320" as="geometry" />
        </mxCell>
        <mxCell id="ibBu3tWBld4mr-qCmF8P-17" value="" style="dashed=0;html=1;shape=mxgraph.aws3.permissions;fillColor=#D9A741;gradientColor=none;dashed=0;" parent="1" vertex="1">
          <mxGeometry x="970.5" y="700" width="30" height="30" as="geometry" />
        </mxCell>
        <mxCell id="ibBu3tWBld4mr-qCmF8P-18" value="" style="outlineConnect=0;dashed=0;verticalLabelPosition=bottom;verticalAlign=top;align=center;html=1;shape=mxgraph.aws3.vpc_nat_gateway;fillColor=#F58534;gradientColor=none;" parent="1" vertex="1">
          <mxGeometry x="1032.5" y="459" width="40" height="40" as="geometry" />
        </mxCell>
        <mxCell id="ibBu3tWBld4mr-qCmF8P-21" value="" style="outlineConnect=0;dashed=0;verticalLabelPosition=bottom;verticalAlign=top;align=center;html=1;shape=mxgraph.aws3.application_load_balancer;fillColor=#F58534;gradientColor=none;" parent="1" vertex="1">
          <mxGeometry x="834.5" y="400" width="40" height="40" as="geometry" />
        </mxCell>
        <mxCell id="ibBu3tWBld4mr-qCmF8P-22" value="" style="outlineConnect=0;dashed=0;verticalLabelPosition=bottom;verticalAlign=top;align=center;html=1;shape=mxgraph.aws3.application_load_balancer;fillColor=#F58534;gradientColor=none;" parent="1" vertex="1">
          <mxGeometry x="832.5" y="640" width="40" height="40" as="geometry" />
        </mxCell>
        <mxCell id="ibBu3tWBld4mr-qCmF8P-23" value="" style="endArrow=classic;html=1;exitX=0.145;exitY=0.855;exitDx=0;exitDy=0;exitPerimeter=0;strokeWidth=2;fillColor=#dae8fc;strokeColor=#6c8ebf;" parent="1" source="ibBu3tWBld4mr-qCmF8P-21" target="CmySC4CDVAbdQlzhq19Z-24" edge="1">
          <mxGeometry width="50" height="50" relative="1" as="geometry">
            <mxPoint x="832.5" y="500" as="sourcePoint" />
            <mxPoint x="696.5" y="561" as="targetPoint" />
          </mxGeometry>
        </mxCell>
        <mxCell id="ibBu3tWBld4mr-qCmF8P-24" value="" style="endArrow=classic;html=1;exitX=0.855;exitY=0.855;exitDx=0;exitDy=0;exitPerimeter=0;strokeWidth=2;fillColor=#dae8fc;strokeColor=#6c8ebf;" parent="1" source="ibBu3tWBld4mr-qCmF8P-21" target="0QRgCGFWbmD3YyNMxomW-17" edge="1">
          <mxGeometry width="50" height="50" relative="1" as="geometry">
            <mxPoint x="822.5" y="530" as="sourcePoint" />
            <mxPoint x="1007.8830909090909" y="555.1677068891374" as="targetPoint" />
          </mxGeometry>
        </mxCell>
        <mxCell id="ibBu3tWBld4mr-qCmF8P-25" value="" style="endArrow=classic;html=1;exitX=0.145;exitY=0.855;exitDx=0;exitDy=0;exitPerimeter=0;strokeWidth=2;fillColor=#dae8fc;strokeColor=#6c8ebf;" parent="1" source="ibBu3tWBld4mr-qCmF8P-22" edge="1" target="CmySC4CDVAbdQlzhq19Z-18">
          <mxGeometry width="50" height="50" relative="1" as="geometry">
            <mxPoint x="522.5" y="1110" as="sourcePoint" />
            <mxPoint x="691.5" y="813.5" as="targetPoint" />
          </mxGeometry>
        </mxCell>
        <mxCell id="ibBu3tWBld4mr-qCmF8P-26" value="" style="endArrow=classic;html=1;exitX=0.855;exitY=0.855;exitDx=0;exitDy=0;exitPerimeter=0;entryX=0;entryY=0;entryDx=0;entryDy=0;entryPerimeter=0;strokeWidth=2;fillColor=#dae8fc;strokeColor=#6c8ebf;" parent="1" source="ibBu3tWBld4mr-qCmF8P-22" edge="1">
          <mxGeometry width="50" height="50" relative="1" as="geometry">
            <mxPoint x="822.5" y="760" as="sourcePoint" />
            <mxPoint x="1002.5" y="813.5" as="targetPoint" />
          </mxGeometry>
        </mxCell>
        <mxCell id="ibBu3tWBld4mr-qCmF8P-27" value="" style="endArrow=classic;html=1;strokeWidth=2;fillColor=#dae8fc;strokeColor=#6c8ebf;" parent="1" source="NAflZjk8BzPBNZpsXSza-2" target="ibBu3tWBld4mr-qCmF8P-21" edge="1">
          <mxGeometry width="50" height="50" relative="1" as="geometry">
            <mxPoint x="854.5" y="310" as="sourcePoint" />
            <mxPoint x="572.5" y="1060" as="targetPoint" />
          </mxGeometry>
        </mxCell>
        <mxCell id="A2ULi18Q9b9GqN2XgIJL-15" style="edgeStyle=orthogonalEdgeStyle;rounded=0;orthogonalLoop=1;jettySize=auto;html=1;exitX=0.875;exitY=0.5;exitDx=0;exitDy=0;exitPerimeter=0;" parent="1" source="ibBu3tWBld4mr-qCmF8P-28" target="0QRgCGFWbmD3YyNMxomW-3" edge="1">
          <mxGeometry relative="1" as="geometry" />
        </mxCell>
        <mxCell id="ibBu3tWBld4mr-qCmF8P-28" value="Internet" style="ellipse;shape=cloud;whiteSpace=wrap;html=1;" parent="1" vertex="1">
          <mxGeometry x="638.5" y="26" width="120" height="80" as="geometry" />
        </mxCell>
        <mxCell id="ibBu3tWBld4mr-qCmF8P-29" value="" style="endArrow=classic;html=1;strokeWidth=2;entryX=0;entryY=0.5;entryDx=0;entryDy=0;entryPerimeter=0;fillColor=#dae8fc;strokeColor=#6c8ebf;" parent="1" source="CmySC4CDVAbdQlzhq19Z-24" target="ibBu3tWBld4mr-qCmF8P-22" edge="1">
          <mxGeometry width="50" height="50" relative="1" as="geometry">
            <mxPoint x="692.5" y="600" as="sourcePoint" />
            <mxPoint x="692.5" y="650" as="targetPoint" />
          </mxGeometry>
        </mxCell>
        <mxCell id="ibBu3tWBld4mr-qCmF8P-30" value="" style="endArrow=classic;html=1;strokeWidth=2;entryX=1;entryY=0.5;entryDx=0;entryDy=0;entryPerimeter=0;fillColor=#dae8fc;strokeColor=#6c8ebf;" parent="1" source="0QRgCGFWbmD3YyNMxomW-17" target="ibBu3tWBld4mr-qCmF8P-22" edge="1">
          <mxGeometry width="50" height="50" relative="1" as="geometry">
            <mxPoint x="1007.8830909090909" y="583.0131696284329" as="sourcePoint" />
            <mxPoint x="1002.5" y="650" as="targetPoint" />
          </mxGeometry>
        </mxCell>
        <mxCell id="ibBu3tWBld4mr-qCmF8P-31" value="" style="endArrow=classic;startArrow=classic;html=1;strokeWidth=2;fillColor=#e1d5e7;strokeColor=#9673a6;entryX=-0.01;entryY=0.49;entryDx=0;entryDy=0;entryPerimeter=0;exitX=0;exitY=0.5;exitDx=0;exitDy=0;exitPerimeter=0;" parent="1" source="A2ULi18Q9b9GqN2XgIJL-1" target="CmySC4CDVAbdQlzhq19Z-18" edge="1">
          <mxGeometry width="50" height="50" relative="1" as="geometry">
            <mxPoint x="656" y="975.2488372093021" as="sourcePoint" />
            <mxPoint x="653.5" y="831.5" as="targetPoint" />
            <Array as="points">
              <mxPoint x="602.5" y="975" />
              <mxPoint x="603" y="837" />
            </Array>
          </mxGeometry>
        </mxCell>
        <mxCell id="ibBu3tWBld4mr-qCmF8P-32" value="" style="endArrow=classic;startArrow=classic;html=1;strokeWidth=2;fillColor=#e1d5e7;strokeColor=#9673a6;exitX=1;exitY=0.5;exitDx=0;exitDy=0;exitPerimeter=0;entryX=0.997;entryY=0.601;entryDx=0;entryDy=0;entryPerimeter=0;" parent="1" source="A2ULi18Q9b9GqN2XgIJL-1" edge="1">
          <mxGeometry width="50" height="50" relative="1" as="geometry">
            <mxPoint x="728.5" y="960.22" as="sourcePoint" />
            <mxPoint x="1040.386" y="835.136" as="targetPoint" />
            <Array as="points">
              <mxPoint x="782.5" y="930" />
              <mxPoint x="1102.5" y="930" />
              <mxPoint x="1102.5" y="835" />
            </Array>
          </mxGeometry>
        </mxCell>
        <mxCell id="ibBu3tWBld4mr-qCmF8P-33" value="" style="endArrow=classic;startArrow=none;html=1;strokeWidth=2;dashed=1;fillColor=#f5f5f5;strokeColor=#666666;entryX=0;entryY=0.5;entryDx=0;entryDy=0;entryPerimeter=0;endFill=1;startFill=0;exitX=1;exitY=0.5;exitDx=0;exitDy=0;exitPerimeter=0;" parent="1" source="A2ULi18Q9b9GqN2XgIJL-1" target="A2ULi18Q9b9GqN2XgIJL-3" edge="1">
          <mxGeometry width="50" height="50" relative="1" as="geometry">
            <mxPoint x="699.5" y="975.3499999999999" as="sourcePoint" />
            <mxPoint x="999" y="975.3499999999999" as="targetPoint" />
          </mxGeometry>
        </mxCell>
        <mxCell id="ibBu3tWBld4mr-qCmF8P-34" value="public_subnet_1" style="text;html=1;strokeColor=none;fillColor=none;align=center;verticalAlign=middle;whiteSpace=wrap;rounded=0;" parent="1" vertex="1">
          <mxGeometry x="670.5" y="416" width="40" height="20" as="geometry" />
        </mxCell>
        <mxCell id="ibBu3tWBld4mr-qCmF8P-35" value="public_subnet_2" style="text;html=1;strokeColor=none;fillColor=none;align=center;verticalAlign=middle;whiteSpace=wrap;rounded=0;" parent="1" vertex="1">
          <mxGeometry x="1034.5" y="416" width="40" height="20" as="geometry" />
        </mxCell>
        <mxCell id="ibBu3tWBld4mr-qCmF8P-36" value="private_subnet_1" style="text;html=1;strokeColor=none;fillColor=none;align=center;verticalAlign=middle;whiteSpace=wrap;rounded=0;" parent="1" vertex="1">
          <mxGeometry x="670.5" y="695" width="40" height="20" as="geometry" />
        </mxCell>
        <mxCell id="ibBu3tWBld4mr-qCmF8P-37" value="private_subnet_2" style="text;html=1;strokeColor=none;fillColor=none;align=center;verticalAlign=middle;whiteSpace=wrap;rounded=0;" parent="1" vertex="1">
          <mxGeometry x="1035.5" y="695" width="40" height="20" as="geometry" />
        </mxCell>
        <mxCell id="ibBu3tWBld4mr-qCmF8P-38" value="" style="rounded=1;arcSize=10;dashed=0;fillColor=none;gradientColor=none;strokeWidth=2;" parent="1" vertex="1">
          <mxGeometry x="372.5" y="440" width="160" height="120" as="geometry" />
        </mxCell>
        <mxCell id="ibBu3tWBld4mr-qCmF8P-39" value="" style="dashed=0;html=1;shape=mxgraph.aws3.permissions;fillColor=#D9A741;gradientColor=none;dashed=0;" parent="1" vertex="1">
          <mxGeometry x="387.5" y="416" width="30" height="30" as="geometry" />
        </mxCell>
        <mxCell id="ibBu3tWBld4mr-qCmF8P-40" value="bastion_subnet" style="text;html=1;strokeColor=none;fillColor=none;align=center;verticalAlign=middle;whiteSpace=wrap;rounded=0;" parent="1" vertex="1">
          <mxGeometry x="451.5" y="415" width="40" height="20" as="geometry" />
        </mxCell>
        <mxCell id="ibBu3tWBld4mr-qCmF8P-41" value="EC2" style="outlineConnect=0;dashed=0;verticalLabelPosition=middle;verticalAlign=middle;align=center;html=1;shape=mxgraph.aws3.instance;fillColor=#F58534;gradientColor=none;labelPosition=center;" parent="1" vertex="1">
          <mxGeometry x="432.5" y="480" width="40" height="40" as="geometry" />
        </mxCell>
        <mxCell id="ibBu3tWBld4mr-qCmF8P-42" value="igw" style="text;html=1;strokeColor=none;fillColor=none;align=center;verticalAlign=middle;whiteSpace=wrap;rounded=0;" parent="1" vertex="1">
          <mxGeometry x="1112.5" y="313" width="40" height="20" as="geometry" />
        </mxCell>
        <mxCell id="ibBu3tWBld4mr-qCmF8P-43" value="nat_gw_1" style="text;html=1;strokeColor=none;fillColor=none;align=center;verticalAlign=middle;whiteSpace=wrap;rounded=0;" parent="1" vertex="1">
          <mxGeometry x="686.5" y="467.5" width="40" height="20" as="geometry" />
        </mxCell>
        <mxCell id="ibBu3tWBld4mr-qCmF8P-44" value="nat_gw_2" style="text;html=1;strokeColor=none;fillColor=none;align=center;verticalAlign=middle;whiteSpace=wrap;rounded=0;" parent="1" vertex="1">
          <mxGeometry x="976.5" y="469" width="40" height="20" as="geometry" />
        </mxCell>
        <mxCell id="ibBu3tWBld4mr-qCmF8P-45" value="ui_security/target groups" style="text;html=1;strokeColor=none;fillColor=none;align=center;verticalAlign=middle;whiteSpace=wrap;rounded=0;" parent="1" vertex="1">
          <mxGeometry x="835.5" y="539" width="40" height="20" as="geometry" />
        </mxCell>
        <mxCell id="ibBu3tWBld4mr-qCmF8P-47" value="uii_loadbalancer" style="text;html=1;strokeColor=none;fillColor=none;align=center;verticalAlign=middle;whiteSpace=wrap;rounded=0;" parent="1" vertex="1">
          <mxGeometry x="833.5" y="462" width="40" height="20" as="geometry" />
        </mxCell>
        <mxCell id="ibBu3tWBld4mr-qCmF8P-48" value="api_loadbalancer" style="text;html=1;" parent="1" vertex="1">
          <mxGeometry x="802.5" y="700" width="110" height="30" as="geometry" />
        </mxCell>
        <mxCell id="ibBu3tWBld4mr-qCmF8P-49" value="&lt;span style=&quot;color: rgb(36 , 41 , 46) ; font-family: , &amp;quot;consolas&amp;quot; , &amp;quot;liberation mono&amp;quot; , &amp;quot;menlo&amp;quot; , monospace ; white-space: pre ; background-color: rgb(255 , 255 , 255)&quot;&gt;&lt;b&gt;az_ca-central-1a&lt;/b&gt;&lt;/span&gt;" style="text;html=1;strokeColor=none;fillColor=none;align=center;verticalAlign=middle;whiteSpace=wrap;rounded=0;" parent="1" vertex="1">
          <mxGeometry x="400.5" y="376" width="40" height="20" as="geometry" />
        </mxCell>
        <mxCell id="ibBu3tWBld4mr-qCmF8P-50" value="&lt;b style=&quot;border-color: var(--border-color); caret-color: rgb(36, 41, 46); color: rgb(36, 41, 46); background-color: rgb(255, 255, 255);&quot;&gt;az_ca-central-1b&lt;/b&gt;" style="text;html=1;strokeColor=none;fillColor=none;align=center;verticalAlign=middle;whiteSpace=wrap;rounded=0;" parent="1" vertex="1">
          <mxGeometry x="943" y="376" width="102.5" height="20" as="geometry" />
        </mxCell>
        <mxCell id="ibBu3tWBld4mr-qCmF8P-51" value="Aurora Postgres" style="text;html=1;strokeColor=none;fillColor=none;align=center;verticalAlign=middle;whiteSpace=wrap;rounded=0;" parent="1" vertex="1">
          <mxGeometry x="632.75" y="1006" width="90" height="20" as="geometry" />
        </mxCell>
        <mxCell id="ibBu3tWBld4mr-qCmF8P-55" value="&lt;b style=&quot;border-color: var(--border-color);&quot;&gt;UAML API&lt;/b&gt;" style="text;html=1;strokeColor=none;fillColor=none;align=center;verticalAlign=middle;whiteSpace=wrap;rounded=0;" parent="1" vertex="1">
          <mxGeometry x="636" y="869" width="90" height="9" as="geometry" />
        </mxCell>
        <mxCell id="ibBu3tWBld4mr-qCmF8P-59" value="Primary Region (ca-central-1)" style="text;html=1;strokeColor=none;fillColor=none;align=center;verticalAlign=middle;whiteSpace=wrap;rounded=0;fontStyle=1;fontSize=21;" parent="1" vertex="1">
          <mxGeometry x="290" y="210" width="390" height="20" as="geometry" />
        </mxCell>
        <mxCell id="ibBu3tWBld4mr-qCmF8P-65" value="bastion" style="text;html=1;strokeColor=none;fillColor=none;align=center;verticalAlign=middle;whiteSpace=wrap;rounded=0;fontSize=12;" parent="1" vertex="1">
          <mxGeometry x="432.5" y="525" width="40" height="20" as="geometry" />
        </mxCell>
        <mxCell id="ibBu3tWBld4mr-qCmF8P-79" value="" style="sketch=0;points=[[0,0,0],[0.25,0,0],[0.5,0,0],[0.75,0,0],[1,0,0],[0,1,0],[0.25,1,0],[0.5,1,0],[0.75,1,0],[1,1,0],[0,0.25,0],[0,0.5,0],[0,0.75,0],[1,0.25,0],[1,0.5,0],[1,0.75,0]];outlineConnect=0;fontColor=#232F3E;gradientColor=#945DF2;gradientDirection=north;fillColor=#5A30B5;strokeColor=#ffffff;dashed=0;verticalLabelPosition=bottom;verticalAlign=top;align=center;html=1;fontSize=12;fontStyle=0;aspect=fixed;shape=mxgraph.aws4.resourceIcon;resIcon=mxgraph.aws4.route_53;" parent="1" vertex="1">
          <mxGeometry x="1210" y="304" width="58" height="58" as="geometry" />
        </mxCell>
        <mxCell id="ibBu3tWBld4mr-qCmF8P-80" value="Certificate Manager" style="sketch=0;points=[[0,0,0],[0.25,0,0],[0.5,0,0],[0.75,0,0],[1,0,0],[0,1,0],[0.25,1,0],[0.5,1,0],[0.75,1,0],[1,1,0],[0,0.25,0],[0,0.5,0],[0,0.75,0],[1,0.25,0],[1,0.5,0],[1,0.75,0]];outlineConnect=0;fontColor=#232F3E;gradientColor=#F54749;gradientDirection=north;fillColor=#C7131F;strokeColor=#ffffff;dashed=0;verticalLabelPosition=bottom;verticalAlign=top;align=center;html=1;fontSize=12;fontStyle=0;aspect=fixed;shape=mxgraph.aws4.resourceIcon;resIcon=mxgraph.aws4.certificate_manager_3;" parent="1" vertex="1">
          <mxGeometry x="166" y="480" width="58" height="58" as="geometry" />
        </mxCell>
        <mxCell id="ibBu3tWBld4mr-qCmF8P-81" value="" style="sketch=0;points=[[0,0,0],[0.25,0,0],[0.5,0,0],[0.75,0,0],[1,0,0],[0,1,0],[0.25,1,0],[0.5,1,0],[0.75,1,0],[1,1,0],[0,0.25,0],[0,0.5,0],[0,0.75,0],[1,0.25,0],[1,0.5,0],[1,0.75,0]];outlineConnect=0;fontColor=#232F3E;gradientColor=#F54749;gradientDirection=north;fillColor=#C7131F;strokeColor=#ffffff;dashed=0;verticalLabelPosition=bottom;verticalAlign=top;align=center;html=1;fontSize=12;fontStyle=0;aspect=fixed;shape=mxgraph.aws4.resourceIcon;resIcon=mxgraph.aws4.cognito;" parent="1" vertex="1">
          <mxGeometry x="145" y="589" width="58" height="58" as="geometry" />
        </mxCell>
        <mxCell id="NAflZjk8BzPBNZpsXSza-3" value="" style="endArrow=classic;html=1;strokeWidth=2;fillColor=#dae8fc;strokeColor=#6c8ebf;exitX=0.5;exitY=1;exitDx=0;exitDy=0;exitPerimeter=0;" parent="1" source="A2ULi18Q9b9GqN2XgIJL-12" target="NAflZjk8BzPBNZpsXSza-2" edge="1">
          <mxGeometry width="50" height="50" relative="1" as="geometry">
            <mxPoint x="854.5" y="310" as="sourcePoint" />
            <mxPoint x="855" y="400" as="targetPoint" />
            <Array as="points">
              <mxPoint x="1239" y="280" />
              <mxPoint x="853" y="280" />
            </Array>
          </mxGeometry>
        </mxCell>
        <mxCell id="NAflZjk8BzPBNZpsXSza-2" value="" style="sketch=0;points=[[0,0,0],[0.25,0,0],[0.5,0,0],[0.75,0,0],[1,0,0],[0,1,0],[0.25,1,0],[0.5,1,0],[0.75,1,0],[1,1,0],[0,0.25,0],[0,0.5,0],[0,0.75,0],[1,0.25,0],[1,0.5,0],[1,0.75,0]];outlineConnect=0;fontColor=#232F3E;gradientColor=#F54749;gradientDirection=north;fillColor=#C7131F;strokeColor=#ffffff;dashed=0;verticalLabelPosition=bottom;verticalAlign=top;align=center;html=1;fontSize=12;fontStyle=0;aspect=fixed;shape=mxgraph.aws4.resourceIcon;resIcon=mxgraph.aws4.waf;" parent="1" vertex="1">
          <mxGeometry x="827" y="307" width="51" height="51" as="geometry" />
        </mxCell>
        <mxCell id="NAflZjk8BzPBNZpsXSza-5" value="Github Actions" style="shape=image;verticalLabelPosition=bottom;labelBackgroundColor=default;verticalAlign=top;aspect=fixed;imageAspect=0;image=https://seeklogo.com/images/G/github-actions-logo-031704BDC6-seeklogo.com.png;" parent="1" vertex="1">
          <mxGeometry x="170" y="375" width="50" height="50" as="geometry" />
        </mxCell>
        <mxCell id="UGLuprviDHtJ66Gd5Cty-3" value="" style="rounded=1;arcSize=10;dashed=1;fillColor=none;gradientColor=none;dashPattern=8 3 1 3;strokeWidth=2;pointerEvents=1;" parent="1" vertex="1">
          <mxGeometry x="1640" y="540" width="460" height="86" as="geometry" />
        </mxCell>
        <mxCell id="UGLuprviDHtJ66Gd5Cty-4" value="" style="rounded=1;arcSize=10;dashed=1;strokeColor=#F59D56;fillColor=none;gradientColor=none;dashPattern=8 4;strokeWidth=2;" parent="1" vertex="1">
          <mxGeometry x="1352.5" y="400" width="460" height="680" as="geometry" />
        </mxCell>
        <mxCell id="UGLuprviDHtJ66Gd5Cty-5" value="" style="rounded=1;arcSize=10;dashed=0;fillColor=none;gradientColor=none;strokeWidth=2;" parent="1" vertex="1">
          <mxGeometry x="1612.5" y="440" width="160" height="200" as="geometry" />
        </mxCell>
        <mxCell id="UGLuprviDHtJ66Gd5Cty-6" value="" style="outlineConnect=0;dashed=0;verticalLabelPosition=bottom;verticalAlign=top;align=center;html=1;shape=mxgraph.aws3.internet_gateway;fillColor=#F58536;gradientColor=none;" parent="1" vertex="1">
          <mxGeometry x="2094.5" y="315" width="40" height="40" as="geometry" />
        </mxCell>
        <mxCell id="UGLuprviDHtJ66Gd5Cty-7" value="" style="outlineConnect=0;dashed=0;verticalLabelPosition=bottom;verticalAlign=top;align=center;html=1;shape=mxgraph.aws3.vpc_nat_gateway;fillColor=#F58534;gradientColor=none;" parent="1" vertex="1">
          <mxGeometry x="1652.5" y="460.5" width="40" height="40" as="geometry" />
        </mxCell>
        <mxCell id="UGLuprviDHtJ66Gd5Cty-8" value="" style="dashed=0;html=1;shape=mxgraph.aws3.virtual_private_cloud;fillColor=#F58536;gradientColor=none;dashed=0;" parent="1" vertex="1">
          <mxGeometry x="1407.5" y="315" width="52" height="36" as="geometry" />
        </mxCell>
        <mxCell id="UGLuprviDHtJ66Gd5Cty-9" value="" style="rounded=1;arcSize=10;dashed=1;strokeColor=#F59D56;fillColor=none;gradientColor=none;dashPattern=8 4;strokeWidth=2;" parent="1" vertex="1">
          <mxGeometry x="1932.5" y="400" width="240" height="680" as="geometry" />
        </mxCell>
        <mxCell id="UGLuprviDHtJ66Gd5Cty-10" value="" style="dashed=0;html=1;shape=mxgraph.aws3.permissions;fillColor=#D9A741;gradientColor=none;dashed=0;" parent="1" vertex="1">
          <mxGeometry x="1628.5" y="420" width="30" height="30" as="geometry" />
        </mxCell>
        <mxCell id="UGLuprviDHtJ66Gd5Cty-11" value="" style="rounded=1;arcSize=10;dashed=0;fillColor=none;gradientColor=none;strokeWidth=2;" parent="1" vertex="1">
          <mxGeometry x="1972.5" y="440" width="160" height="200" as="geometry" />
        </mxCell>
        <mxCell id="UGLuprviDHtJ66Gd5Cty-12" value="" style="dashed=0;html=1;shape=mxgraph.aws3.permissions;fillColor=#D9A741;gradientColor=none;dashed=0;" parent="1" vertex="1">
          <mxGeometry x="1992.5" y="420" width="30" height="30" as="geometry" />
        </mxCell>
        <mxCell id="UGLuprviDHtJ66Gd5Cty-13" value="" style="rounded=1;arcSize=10;dashed=0;fillColor=none;gradientColor=none;strokeWidth=2;" parent="1" vertex="1">
          <mxGeometry x="1612.5" y="720" width="160" height="340" as="geometry" />
        </mxCell>
        <mxCell id="UGLuprviDHtJ66Gd5Cty-14" value="" style="dashed=0;html=1;shape=mxgraph.aws3.permissions;fillColor=#D9A741;gradientColor=none;dashed=0;" parent="1" vertex="1">
          <mxGeometry x="1628.5" y="700" width="30" height="30" as="geometry" />
        </mxCell>
        <mxCell id="UGLuprviDHtJ66Gd5Cty-16" value="" style="dashed=0;html=1;shape=mxgraph.aws3.permissions;fillColor=#D9A741;gradientColor=none;dashed=0;" parent="1" vertex="1">
          <mxGeometry x="1990.5" y="700" width="30" height="30" as="geometry" />
        </mxCell>
        <mxCell id="UGLuprviDHtJ66Gd5Cty-17" value="" style="outlineConnect=0;dashed=0;verticalLabelPosition=bottom;verticalAlign=top;align=center;html=1;shape=mxgraph.aws3.vpc_nat_gateway;fillColor=#F58534;gradientColor=none;" parent="1" vertex="1">
          <mxGeometry x="2052.5" y="465" width="40" height="40" as="geometry" />
        </mxCell>
        <mxCell id="UGLuprviDHtJ66Gd5Cty-18" value="" style="outlineConnect=0;dashed=0;verticalLabelPosition=bottom;verticalAlign=top;align=center;html=1;shape=mxgraph.aws3.application_load_balancer;fillColor=#F58534;gradientColor=none;" parent="1" vertex="1">
          <mxGeometry x="1854.5" y="400" width="40" height="40" as="geometry" />
        </mxCell>
        <mxCell id="UGLuprviDHtJ66Gd5Cty-19" value="" style="outlineConnect=0;dashed=0;verticalLabelPosition=bottom;verticalAlign=top;align=center;html=1;shape=mxgraph.aws3.application_load_balancer;fillColor=#F58534;gradientColor=none;" parent="1" vertex="1">
          <mxGeometry x="1852.5" y="640" width="40" height="40" as="geometry" />
        </mxCell>
        <mxCell id="UGLuprviDHtJ66Gd5Cty-20" value="" style="endArrow=classic;html=1;exitX=0.145;exitY=0.855;exitDx=0;exitDy=0;exitPerimeter=0;strokeWidth=2;fillColor=#dae8fc;strokeColor=#6c8ebf;" parent="1" target="CmySC4CDVAbdQlzhq19Z-44" edge="1">
          <mxGeometry width="50" height="50" relative="1" as="geometry">
            <mxPoint x="1860.3000000000002" y="432.20000000000005" as="sourcePoint" />
            <mxPoint x="1712.5" y="558" as="targetPoint" />
          </mxGeometry>
        </mxCell>
        <mxCell id="UGLuprviDHtJ66Gd5Cty-21" value="" style="endArrow=classic;html=1;exitX=0.855;exitY=0.855;exitDx=0;exitDy=0;exitPerimeter=0;strokeWidth=2;fillColor=#dae8fc;strokeColor=#6c8ebf;" parent="1" source="UGLuprviDHtJ66Gd5Cty-18" target="CmySC4CDVAbdQlzhq19Z-46" edge="1">
          <mxGeometry width="50" height="50" relative="1" as="geometry">
            <mxPoint x="1842.5" y="530" as="sourcePoint" />
            <mxPoint x="2032.5" y="560" as="targetPoint" />
          </mxGeometry>
        </mxCell>
        <mxCell id="UGLuprviDHtJ66Gd5Cty-22" value="" style="endArrow=classic;html=1;exitX=0.145;exitY=0.855;exitDx=0;exitDy=0;exitPerimeter=0;strokeWidth=2;fillColor=#dae8fc;strokeColor=#6c8ebf;" parent="1" source="UGLuprviDHtJ66Gd5Cty-19" target="CmySC4CDVAbdQlzhq19Z-40" edge="1">
          <mxGeometry width="50" height="50" relative="1" as="geometry">
            <mxPoint x="1542.5" y="1110" as="sourcePoint" />
            <mxPoint x="1711.5" y="813.5" as="targetPoint" />
          </mxGeometry>
        </mxCell>
        <mxCell id="UGLuprviDHtJ66Gd5Cty-23" value="" style="endArrow=classic;html=1;exitX=0.855;exitY=0.855;exitDx=0;exitDy=0;exitPerimeter=0;strokeWidth=2;fillColor=#dae8fc;strokeColor=#6c8ebf;" parent="1" source="UGLuprviDHtJ66Gd5Cty-19" target="CmySC4CDVAbdQlzhq19Z-42" edge="1">
          <mxGeometry width="50" height="50" relative="1" as="geometry">
            <mxPoint x="1842.5" y="760" as="sourcePoint" />
            <mxPoint x="2022.5" y="813.5" as="targetPoint" />
          </mxGeometry>
        </mxCell>
        <mxCell id="UGLuprviDHtJ66Gd5Cty-24" value="" style="endArrow=classic;html=1;strokeWidth=2;fillColor=#dae8fc;strokeColor=#6c8ebf;" parent="1" source="UGLuprviDHtJ66Gd5Cty-60" target="UGLuprviDHtJ66Gd5Cty-18" edge="1">
          <mxGeometry width="50" height="50" relative="1" as="geometry">
            <mxPoint x="1874.5" y="310" as="sourcePoint" />
            <mxPoint x="1592.5" y="1060" as="targetPoint" />
          </mxGeometry>
        </mxCell>
        <mxCell id="UGLuprviDHtJ66Gd5Cty-26" value="" style="endArrow=classic;html=1;strokeWidth=2;exitX=0.5;exitY=1;exitDx=0;exitDy=0;exitPerimeter=0;fillColor=#dae8fc;strokeColor=#6c8ebf;" parent="1" edge="1">
          <mxGeometry width="50" height="50" relative="1" as="geometry">
            <mxPoint x="1712.5" y="600" as="sourcePoint" />
            <mxPoint x="1850" y="650" as="targetPoint" />
          </mxGeometry>
        </mxCell>
        <mxCell id="UGLuprviDHtJ66Gd5Cty-27" value="" style="endArrow=classic;html=1;strokeWidth=2;fillColor=#dae8fc;strokeColor=#6c8ebf;" parent="1" source="CmySC4CDVAbdQlzhq19Z-46" edge="1">
          <mxGeometry width="50" height="50" relative="1" as="geometry">
            <mxPoint x="2032.5" y="600" as="sourcePoint" />
            <mxPoint x="1890" y="650" as="targetPoint" />
          </mxGeometry>
        </mxCell>
        <mxCell id="UGLuprviDHtJ66Gd5Cty-28" value="" style="endArrow=classic;startArrow=classic;html=1;strokeWidth=2;fillColor=#e1d5e7;strokeColor=#9673a6;exitX=0;exitY=0.5;exitDx=0;exitDy=0;exitPerimeter=0;" parent="1" source="A2ULi18Q9b9GqN2XgIJL-9" edge="1">
          <mxGeometry width="50" height="50" relative="1" as="geometry">
            <mxPoint x="1676" y="975.2488372093021" as="sourcePoint" />
            <mxPoint x="1680" y="832" as="targetPoint" />
            <Array as="points">
              <mxPoint x="1622.5" y="975" />
              <mxPoint x="1622.5" y="832" />
            </Array>
          </mxGeometry>
        </mxCell>
        <mxCell id="UGLuprviDHtJ66Gd5Cty-29" value="" style="endArrow=classic;startArrow=classic;html=1;strokeWidth=2;fillColor=#e1d5e7;strokeColor=#9673a6;exitX=1;exitY=0.5;exitDx=0;exitDy=0;exitPerimeter=0;" parent="1" source="A2ULi18Q9b9GqN2XgIJL-9" target="CmySC4CDVAbdQlzhq19Z-42" edge="1">
          <mxGeometry width="50" height="50" relative="1" as="geometry">
            <mxPoint x="1748.5" y="960.22" as="sourcePoint" />
            <mxPoint x="2060.386" y="835.136" as="targetPoint" />
            <Array as="points">
              <mxPoint x="1802.5" y="930" />
              <mxPoint x="2122.5" y="930" />
              <mxPoint x="2122.5" y="835" />
            </Array>
          </mxGeometry>
        </mxCell>
        <mxCell id="UGLuprviDHtJ66Gd5Cty-30" value="" style="endArrow=classic;startArrow=none;html=1;strokeWidth=2;dashed=1;fillColor=#f5f5f5;strokeColor=#666666;entryX=0;entryY=0.5;entryDx=0;entryDy=0;entryPerimeter=0;startFill=0;exitX=1;exitY=0.5;exitDx=0;exitDy=0;exitPerimeter=0;" parent="1" source="A2ULi18Q9b9GqN2XgIJL-9" target="A2ULi18Q9b9GqN2XgIJL-10" edge="1">
          <mxGeometry width="50" height="50" relative="1" as="geometry">
            <mxPoint x="1719.5" y="975.3499999999999" as="sourcePoint" />
            <mxPoint x="2019" y="975.3499999999999" as="targetPoint" />
          </mxGeometry>
        </mxCell>
        <mxCell id="UGLuprviDHtJ66Gd5Cty-31" value="public_subnet_1" style="text;html=1;strokeColor=none;fillColor=none;align=center;verticalAlign=middle;whiteSpace=wrap;rounded=0;" parent="1" vertex="1">
          <mxGeometry x="1690.5" y="416" width="40" height="20" as="geometry" />
        </mxCell>
        <mxCell id="UGLuprviDHtJ66Gd5Cty-32" value="public_subnet_2" style="text;html=1;strokeColor=none;fillColor=none;align=center;verticalAlign=middle;whiteSpace=wrap;rounded=0;" parent="1" vertex="1">
          <mxGeometry x="2054.5" y="416" width="40" height="20" as="geometry" />
        </mxCell>
        <mxCell id="UGLuprviDHtJ66Gd5Cty-33" value="private_subnet_1" style="text;html=1;strokeColor=none;fillColor=none;align=center;verticalAlign=middle;whiteSpace=wrap;rounded=0;" parent="1" vertex="1">
          <mxGeometry x="1690.5" y="695" width="40" height="20" as="geometry" />
        </mxCell>
        <mxCell id="UGLuprviDHtJ66Gd5Cty-34" value="private_subnet_2" style="text;html=1;strokeColor=none;fillColor=none;align=center;verticalAlign=middle;whiteSpace=wrap;rounded=0;" parent="1" vertex="1">
          <mxGeometry x="2055.5" y="695" width="40" height="20" as="geometry" />
        </mxCell>
        <mxCell id="UGLuprviDHtJ66Gd5Cty-35" value="" style="rounded=1;arcSize=10;dashed=0;fillColor=none;gradientColor=none;strokeWidth=2;" parent="1" vertex="1">
          <mxGeometry x="1392.5" y="440" width="160" height="120" as="geometry" />
        </mxCell>
        <mxCell id="UGLuprviDHtJ66Gd5Cty-36" value="" style="dashed=0;html=1;shape=mxgraph.aws3.permissions;fillColor=#D9A741;gradientColor=none;dashed=0;" parent="1" vertex="1">
          <mxGeometry x="1407.5" y="416" width="30" height="30" as="geometry" />
        </mxCell>
        <mxCell id="UGLuprviDHtJ66Gd5Cty-37" value="bastion_subnet" style="text;html=1;strokeColor=none;fillColor=none;align=center;verticalAlign=middle;whiteSpace=wrap;rounded=0;" parent="1" vertex="1">
          <mxGeometry x="1471.5" y="415" width="40" height="20" as="geometry" />
        </mxCell>
        <mxCell id="UGLuprviDHtJ66Gd5Cty-38" value="EC2" style="outlineConnect=0;dashed=0;verticalLabelPosition=middle;verticalAlign=middle;align=center;html=1;shape=mxgraph.aws3.instance;fillColor=#F58534;gradientColor=none;labelPosition=center;" parent="1" vertex="1">
          <mxGeometry x="1452.5" y="480" width="40" height="40" as="geometry" />
        </mxCell>
        <mxCell id="UGLuprviDHtJ66Gd5Cty-39" value="igw" style="text;html=1;strokeColor=none;fillColor=none;align=center;verticalAlign=middle;whiteSpace=wrap;rounded=0;" parent="1" vertex="1">
          <mxGeometry x="2132.5" y="313" width="40" height="20" as="geometry" />
        </mxCell>
        <mxCell id="UGLuprviDHtJ66Gd5Cty-40" value="nat_gw_1" style="text;html=1;strokeColor=none;fillColor=none;align=center;verticalAlign=middle;whiteSpace=wrap;rounded=0;" parent="1" vertex="1">
          <mxGeometry x="1706.5" y="470.5" width="40" height="20" as="geometry" />
        </mxCell>
        <mxCell id="UGLuprviDHtJ66Gd5Cty-41" value="nat_gw_2" style="text;html=1;strokeColor=none;fillColor=none;align=center;verticalAlign=middle;whiteSpace=wrap;rounded=0;" parent="1" vertex="1">
          <mxGeometry x="1996.5" y="475" width="40" height="20" as="geometry" />
        </mxCell>
        <mxCell id="UGLuprviDHtJ66Gd5Cty-42" value="ui_security/target groups" style="text;html=1;strokeColor=none;fillColor=none;align=center;verticalAlign=middle;whiteSpace=wrap;rounded=0;" parent="1" vertex="1">
          <mxGeometry x="1855.5" y="550" width="40" height="20" as="geometry" />
        </mxCell>
        <mxCell id="UGLuprviDHtJ66Gd5Cty-43" value="api_security/target groups" style="text;html=1;strokeColor=none;fillColor=none;align=center;verticalAlign=middle;whiteSpace=wrap;rounded=0;" parent="1" vertex="1">
          <mxGeometry x="1852.5" y="794" width="40" height="20" as="geometry" />
        </mxCell>
        <mxCell id="UGLuprviDHtJ66Gd5Cty-44" value="ui_loadbalancers" style="text;html=1;strokeColor=none;fillColor=none;align=center;verticalAlign=middle;whiteSpace=wrap;rounded=0;" parent="1" vertex="1">
          <mxGeometry x="1853.5" y="462" width="40" height="20" as="geometry" />
        </mxCell>
        <mxCell id="UGLuprviDHtJ66Gd5Cty-45" value="api_loadbalancer" style="text;html=1;" parent="1" vertex="1">
          <mxGeometry x="1830.5" y="700" width="110" height="30" as="geometry" />
        </mxCell>
        <mxCell id="UGLuprviDHtJ66Gd5Cty-46" value="&lt;b style=&quot;border-color: var(--border-color); caret-color: rgb(36, 41, 46); color: rgb(36, 41, 46); background-color: rgb(255, 255, 255);&quot;&gt;az_us-east-1a&lt;/b&gt;" style="text;html=1;strokeColor=none;fillColor=none;align=center;verticalAlign=middle;whiteSpace=wrap;rounded=0;" parent="1" vertex="1">
          <mxGeometry x="1401.5" y="376" width="99.5" height="20" as="geometry" />
        </mxCell>
        <mxCell id="UGLuprviDHtJ66Gd5Cty-47" value="&lt;b style=&quot;border-color: var(--border-color); caret-color: rgb(36, 41, 46); color: rgb(36, 41, 46); background-color: rgb(255, 255, 255);&quot;&gt;az_us-east-1b&lt;/b&gt;" style="text;html=1;strokeColor=none;fillColor=none;align=center;verticalAlign=middle;whiteSpace=wrap;rounded=0;" parent="1" vertex="1">
          <mxGeometry x="1950" y="376" width="85.5" height="20" as="geometry" />
        </mxCell>
        <mxCell id="UGLuprviDHtJ66Gd5Cty-50" value="Secondary Region (us-east-1)" style="text;html=1;strokeColor=none;fillColor=none;align=center;verticalAlign=middle;whiteSpace=wrap;rounded=0;fontStyle=1;fontSize=21;" parent="1" vertex="1">
          <mxGeometry x="1887.5" y="197" width="390" height="20" as="geometry" />
        </mxCell>
        <mxCell id="UGLuprviDHtJ66Gd5Cty-51" value="bastion" style="text;html=1;strokeColor=none;fillColor=none;align=center;verticalAlign=middle;whiteSpace=wrap;rounded=0;fontSize=12;" parent="1" vertex="1">
          <mxGeometry x="1452.5" y="525" width="40" height="20" as="geometry" />
        </mxCell>
        <mxCell id="UGLuprviDHtJ66Gd5Cty-59" value="" style="endArrow=classic;html=1;strokeWidth=2;fillColor=#dae8fc;strokeColor=#6c8ebf;exitX=0.5;exitY=1;exitDx=0;exitDy=0;exitPerimeter=0;" parent="1" source="A2ULi18Q9b9GqN2XgIJL-12" target="UGLuprviDHtJ66Gd5Cty-60" edge="1">
          <mxGeometry width="50" height="50" relative="1" as="geometry">
            <mxPoint x="1874.5" y="310" as="sourcePoint" />
            <mxPoint x="1875" y="400" as="targetPoint" />
            <Array as="points">
              <mxPoint x="1239" y="280" />
              <mxPoint x="1560" y="280" />
              <mxPoint x="1873" y="280" />
            </Array>
          </mxGeometry>
        </mxCell>
        <mxCell id="UGLuprviDHtJ66Gd5Cty-60" value="" style="sketch=0;points=[[0,0,0],[0.25,0,0],[0.5,0,0],[0.75,0,0],[1,0,0],[0,1,0],[0.25,1,0],[0.5,1,0],[0.75,1,0],[1,1,0],[0,0.25,0],[0,0.5,0],[0,0.75,0],[1,0.25,0],[1,0.5,0],[1,0.75,0]];outlineConnect=0;fontColor=#232F3E;gradientColor=#F54749;gradientDirection=north;fillColor=#C7131F;strokeColor=#ffffff;dashed=0;verticalLabelPosition=bottom;verticalAlign=top;align=center;html=1;fontSize=12;fontStyle=0;aspect=fixed;shape=mxgraph.aws4.resourceIcon;resIcon=mxgraph.aws4.waf;" parent="1" vertex="1">
          <mxGeometry x="1847" y="307" width="51" height="51" as="geometry" />
        </mxCell>
        <mxCell id="A2ULi18Q9b9GqN2XgIJL-1" value="" style="sketch=0;points=[[0,0,0],[0.25,0,0],[0.5,0,0],[0.75,0,0],[1,0,0],[0,1,0],[0.25,1,0],[0.5,1,0],[0.75,1,0],[1,1,0],[0,0.25,0],[0,0.5,0],[0,0.75,0],[1,0.25,0],[1,0.5,0],[1,0.75,0]];outlineConnect=0;fontColor=#232F3E;gradientColor=#4D72F3;gradientDirection=north;fillColor=#3334B9;strokeColor=#ffffff;dashed=0;verticalLabelPosition=bottom;verticalAlign=top;align=center;html=1;fontSize=12;fontStyle=0;aspect=fixed;shape=mxgraph.aws4.resourceIcon;resIcon=mxgraph.aws4.aurora;" parent="1" vertex="1">
          <mxGeometry x="651.5" y="950" width="50" height="50" as="geometry" />
        </mxCell>
        <mxCell id="A2ULi18Q9b9GqN2XgIJL-3" value="Replica" style="sketch=0;points=[[0,0,0],[0.25,0,0],[0.5,0,0],[0.75,0,0],[1,0,0],[0,1,0],[0.25,1,0],[0.5,1,0],[0.75,1,0],[1,1,0],[0,0.25,0],[0,0.5,0],[0,0.75,0],[1,0.25,0],[1,0.5,0],[1,0.75,0]];outlineConnect=0;fontColor=#232F3E;gradientColor=#999999;gradientDirection=north;fillColor=#3334B9;strokeColor=#ffffff;dashed=0;verticalLabelPosition=bottom;verticalAlign=top;align=center;html=1;fontSize=12;fontStyle=0;aspect=fixed;shape=mxgraph.aws4.resourceIcon;resIcon=mxgraph.aws4.aurora;" parent="1" vertex="1">
          <mxGeometry x="1005.5" y="950" width="50" height="50" as="geometry" />
        </mxCell>
        <mxCell id="A2ULi18Q9b9GqN2XgIJL-9" value="" style="sketch=0;points=[[0,0,0],[0.25,0,0],[0.5,0,0],[0.75,0,0],[1,0,0],[0,1,0],[0.25,1,0],[0.5,1,0],[0.75,1,0],[1,1,0],[0,0.25,0],[0,0.5,0],[0,0.75,0],[1,0.25,0],[1,0.5,0],[1,0.75,0]];outlineConnect=0;fontColor=#232F3E;gradientColor=#999999;gradientDirection=north;fillColor=#3334B9;strokeColor=#ffffff;dashed=0;verticalLabelPosition=bottom;verticalAlign=top;align=center;html=1;fontSize=12;fontStyle=0;aspect=fixed;shape=mxgraph.aws4.resourceIcon;resIcon=mxgraph.aws4.aurora;" parent="1" vertex="1">
          <mxGeometry x="1667.5" y="950" width="50" height="50" as="geometry" />
        </mxCell>
        <mxCell id="A2ULi18Q9b9GqN2XgIJL-10" value="Replica" style="sketch=0;points=[[0,0,0],[0.25,0,0],[0.5,0,0],[0.75,0,0],[1,0,0],[0,1,0],[0.25,1,0],[0.5,1,0],[0.75,1,0],[1,1,0],[0,0.25,0],[0,0.5,0],[0,0.75,0],[1,0.25,0],[1,0.5,0],[1,0.75,0]];outlineConnect=0;fontColor=#232F3E;gradientColor=#1A1A1A;gradientDirection=north;fillColor=#3334B9;strokeColor=#ffffff;dashed=0;verticalLabelPosition=bottom;verticalAlign=top;align=center;html=1;fontSize=12;fontStyle=0;aspect=fixed;shape=mxgraph.aws4.resourceIcon;resIcon=mxgraph.aws4.aurora;" parent="1" vertex="1">
          <mxGeometry x="2027.5" y="950" width="50" height="50" as="geometry" />
        </mxCell>
        <mxCell id="A2ULi18Q9b9GqN2XgIJL-12" value="" style="sketch=0;points=[[0,0,0],[0.25,0,0],[0.5,0,0],[0.75,0,0],[1,0,0],[0,1,0],[0.25,1,0],[0.5,1,0],[0.75,1,0],[1,1,0],[0,0.25,0],[0,0.5,0],[0,0.75,0],[1,0.25,0],[1,0.5,0],[1,0.75,0]];outlineConnect=0;fontColor=#232F3E;gradientColor=#945DF2;gradientDirection=north;fillColor=#5A30B5;strokeColor=#ffffff;dashed=0;verticalLabelPosition=bottom;verticalAlign=top;align=center;html=1;fontSize=12;fontStyle=0;aspect=fixed;shape=mxgraph.aws4.resourceIcon;resIcon=mxgraph.aws4.global_accelerator;" parent="1" vertex="1">
          <mxGeometry x="1200" y="138" width="78" height="78" as="geometry" />
        </mxCell>
        <mxCell id="CmySC4CDVAbdQlzhq19Z-1" value="WAF" style="text;html=1;strokeColor=none;fillColor=none;align=center;verticalAlign=middle;whiteSpace=wrap;rounded=0;" parent="1" vertex="1">
          <mxGeometry x="884.5" y="312" width="40" height="20" as="geometry" />
        </mxCell>
        <mxCell id="CmySC4CDVAbdQlzhq19Z-2" value="WAF" style="text;html=1;strokeColor=none;fillColor=none;align=center;verticalAlign=middle;whiteSpace=wrap;rounded=0;" parent="1" vertex="1">
          <mxGeometry x="1909" y="312" width="40" height="20" as="geometry" />
        </mxCell>
        <mxCell id="CmySC4CDVAbdQlzhq19Z-7" value="IAM" style="sketch=0;outlineConnect=0;fontColor=#232F3E;gradientColor=none;fillColor=#BF0816;strokeColor=none;dashed=0;verticalLabelPosition=bottom;verticalAlign=top;align=center;html=1;fontSize=12;fontStyle=0;aspect=fixed;pointerEvents=1;shape=mxgraph.aws4.access_analyzer;" parent="1" vertex="1">
          <mxGeometry x="164" y="696" width="55.71" height="55" as="geometry" />
        </mxCell>
        <mxCell id="CmySC4CDVAbdQlzhq19Z-8" value="" style="sketch=0;outlineConnect=0;fontColor=#232F3E;gradientColor=none;fillColor=#BF0816;strokeColor=none;dashed=0;verticalLabelPosition=bottom;verticalAlign=top;align=center;html=1;fontSize=12;fontStyle=0;aspect=fixed;pointerEvents=1;shape=mxgraph.aws4.mfa_token;" parent="1" vertex="1">
          <mxGeometry x="211" y="591" width="55" height="55" as="geometry" />
        </mxCell>
        <mxCell id="CmySC4CDVAbdQlzhq19Z-10" value="&lt;span style=&quot;color: rgb(36 , 41 , 46) ; font-family: , &amp;quot;consolas&amp;quot; , &amp;quot;liberation mono&amp;quot; , &amp;quot;menlo&amp;quot; , monospace ; white-space: pre ; background-color: rgb(255 , 255 , 255)&quot;&gt;&lt;b&gt;Global Accelerator&lt;/b&gt;&lt;/span&gt;" style="text;html=1;strokeColor=none;fillColor=none;align=center;verticalAlign=middle;whiteSpace=wrap;rounded=0;" parent="1" vertex="1">
          <mxGeometry x="1320" y="160" width="40" height="20" as="geometry" />
        </mxCell>
        <mxCell id="UGLuprviDHtJ66Gd5Cty-48" value="Cross Region Replica" style="text;html=1;strokeColor=none;fillColor=none;align=center;verticalAlign=middle;whiteSpace=wrap;rounded=0;" parent="1" vertex="1">
          <mxGeometry x="1652.75" y="1016" width="90" height="20" as="geometry" />
        </mxCell>
        <mxCell id="CmySC4CDVAbdQlzhq19Z-12" value="api_autoscaling_group" style="sketch=0;points=[[0,0,0],[0.25,0,0],[0.5,0,0],[0.75,0,0],[1,0,0],[0,1,0],[0.25,1,0],[0.5,1,0],[0.75,1,0],[1,1,0],[0,0.25,0],[0,0.5,0],[0,0.75,0],[1,0.25,0],[1,0.5,0],[1,0.75,0]];outlineConnect=0;fontColor=#232F3E;gradientColor=#F78E04;gradientDirection=north;fillColor=#D05C17;strokeColor=#ffffff;dashed=0;verticalLabelPosition=top;verticalAlign=bottom;align=left;html=1;fontSize=12;fontStyle=0;aspect=fixed;shape=mxgraph.aws4.resourceIcon;resIcon=mxgraph.aws4.auto_scaling3;labelPosition=right;" parent="1" vertex="1">
          <mxGeometry x="621.5" y="770" width="30" height="30" as="geometry" />
        </mxCell>
        <mxCell id="CmySC4CDVAbdQlzhq19Z-13" value="api_autoscaling_group" style="sketch=0;points=[[0,0,0],[0.25,0,0],[0.5,0,0],[0.75,0,0],[1,0,0],[0,1,0],[0.25,1,0],[0.5,1,0],[0.75,1,0],[1,1,0],[0,0.25,0],[0,0.5,0],[0,0.75,0],[1,0.25,0],[1,0.5,0],[1,0.75,0]];outlineConnect=0;fontColor=#232F3E;gradientColor=#F78E04;gradientDirection=north;fillColor=#D05C17;strokeColor=#ffffff;dashed=0;verticalLabelPosition=top;verticalAlign=bottom;align=left;html=1;fontSize=12;fontStyle=0;aspect=fixed;shape=mxgraph.aws4.resourceIcon;resIcon=mxgraph.aws4.auto_scaling3;labelPosition=right;" parent="1" vertex="1">
          <mxGeometry x="1658.5" y="770" width="30" height="30" as="geometry" />
        </mxCell>
        <mxCell id="CmySC4CDVAbdQlzhq19Z-14" value="ui_autoscaling_group" style="sketch=0;points=[[0,0,0],[0.25,0,0],[0.5,0,0],[0.75,0,0],[1,0,0],[0,1,0],[0.25,1,0],[0.5,1,0],[0.75,1,0],[1,1,0],[0,0.25,0],[0,0.5,0],[0,0.75,0],[1,0.25,0],[1,0.5,0],[1,0.75,0]];outlineConnect=0;fontColor=#232F3E;gradientColor=#F78E04;gradientDirection=north;fillColor=#D05C17;strokeColor=#ffffff;dashed=0;verticalLabelPosition=top;verticalAlign=bottom;align=left;html=1;fontSize=12;fontStyle=0;aspect=fixed;shape=mxgraph.aws4.resourceIcon;resIcon=mxgraph.aws4.auto_scaling3;labelPosition=right;" parent="1" vertex="1">
          <mxGeometry x="621.5" y="519" width="30" height="30" as="geometry" />
        </mxCell>
        <mxCell id="CmySC4CDVAbdQlzhq19Z-15" value="uii_autoscaling_group" style="sketch=0;points=[[0,0,0],[0.25,0,0],[0.5,0,0],[0.75,0,0],[1,0,0],[0,1,0],[0.25,1,0],[0.5,1,0],[0.75,1,0],[1,1,0],[0,0.25,0],[0,0.5,0],[0,0.75,0],[1,0.25,0],[1,0.5,0],[1,0.75,0]];outlineConnect=0;fontColor=#232F3E;gradientColor=#F78E04;gradientDirection=north;fillColor=#D05C17;strokeColor=#ffffff;dashed=0;verticalLabelPosition=top;verticalAlign=bottom;align=left;html=1;fontSize=12;fontStyle=0;aspect=fixed;shape=mxgraph.aws4.resourceIcon;resIcon=mxgraph.aws4.auto_scaling3;labelPosition=right;" parent="1" vertex="1">
          <mxGeometry x="1662.5" y="525" width="30" height="30" as="geometry" />
        </mxCell>
        <mxCell id="CmySC4CDVAbdQlzhq19Z-16" value="Guard Duty" style="sketch=0;points=[[0,0,0],[0.25,0,0],[0.5,0,0],[0.75,0,0],[1,0,0],[0,1,0],[0.25,1,0],[0.5,1,0],[0.75,1,0],[1,1,0],[0,0.25,0],[0,0.5,0],[0,0.75,0],[1,0.25,0],[1,0.5,0],[1,0.75,0]];outlineConnect=0;fontColor=#232F3E;gradientColor=#F54749;gradientDirection=north;fillColor=#C7131F;strokeColor=#ffffff;dashed=0;verticalLabelPosition=bottom;verticalAlign=top;align=center;html=1;fontSize=12;fontStyle=0;aspect=fixed;shape=mxgraph.aws4.resourceIcon;resIcon=mxgraph.aws4.guardduty;" parent="1" vertex="1">
          <mxGeometry x="169" y="803" width="60" height="60" as="geometry" />
        </mxCell>
        <mxCell id="CmySC4CDVAbdQlzhq19Z-17" value="Secret Manager" style="sketch=0;points=[[0,0,0],[0.25,0,0],[0.5,0,0],[0.75,0,0],[1,0,0],[0,1,0],[0.25,1,0],[0.5,1,0],[0.75,1,0],[1,1,0],[0,0.25,0],[0,0.5,0],[0,0.75,0],[1,0.25,0],[1,0.5,0],[1,0.75,0]];outlineConnect=0;fontColor=#232F3E;gradientColor=#F54749;gradientDirection=north;fillColor=#C7131F;strokeColor=#ffffff;dashed=0;verticalLabelPosition=bottom;verticalAlign=top;align=center;html=1;fontSize=12;fontStyle=0;aspect=fixed;shape=mxgraph.aws4.resourceIcon;resIcon=mxgraph.aws4.secrets_manager;" parent="1" vertex="1">
          <mxGeometry x="168" y="909" width="58" height="58" as="geometry" />
        </mxCell>
        <mxCell id="CmySC4CDVAbdQlzhq19Z-18" value="" style="sketch=0;outlineConnect=0;fontColor=#232F3E;gradientColor=none;fillColor=#D45B07;strokeColor=none;dashed=0;verticalLabelPosition=bottom;verticalAlign=top;align=center;html=1;fontSize=12;fontStyle=0;aspect=fixed;pointerEvents=1;shape=mxgraph.aws4.ecs_service;" parent="1" vertex="1">
          <mxGeometry x="661.5" y="814" width="39" height="48" as="geometry" />
        </mxCell>
        <mxCell id="CmySC4CDVAbdQlzhq19Z-21" value="&lt;b&gt;UAML API&lt;/b&gt;" style="text;html=1;strokeColor=none;fillColor=none;align=center;verticalAlign=middle;whiteSpace=wrap;rounded=0;" parent="1" vertex="1">
          <mxGeometry x="982.5" y="865.5" width="90" height="9" as="geometry" />
        </mxCell>
        <mxCell id="CmySC4CDVAbdQlzhq19Z-22" value="" style="sketch=0;outlineConnect=0;fontColor=#232F3E;gradientColor=none;fillColor=#D45B07;strokeColor=none;dashed=0;verticalLabelPosition=bottom;verticalAlign=top;align=center;html=1;fontSize=12;fontStyle=0;aspect=fixed;pointerEvents=1;shape=mxgraph.aws4.ecs_service;" parent="1" vertex="1">
          <mxGeometry x="1002.75" y="810" width="39" height="48" as="geometry" />
        </mxCell>
        <mxCell id="CmySC4CDVAbdQlzhq19Z-23" value="&lt;b&gt;UI Containers&lt;/b&gt;" style="text;html=1;strokeColor=none;fillColor=none;align=center;verticalAlign=middle;whiteSpace=wrap;rounded=0;" parent="1" vertex="1">
          <mxGeometry x="624.5" y="609.5" width="90" height="9" as="geometry" />
        </mxCell>
        <mxCell id="CmySC4CDVAbdQlzhq19Z-24" value="" style="sketch=0;outlineConnect=0;fontColor=#232F3E;gradientColor=none;fillColor=#D45B07;strokeColor=none;dashed=0;verticalLabelPosition=bottom;verticalAlign=top;align=center;html=1;fontSize=12;fontStyle=0;aspect=fixed;pointerEvents=1;shape=mxgraph.aws4.ecs_service;" parent="1" vertex="1">
          <mxGeometry x="647.75" y="556" width="39" height="48" as="geometry" />
        </mxCell>
        <mxCell id="CmySC4CDVAbdQlzhq19Z-25" value="&lt;b&gt;Slicing Portal&lt;/b&gt;" style="text;html=1;strokeColor=none;fillColor=none;align=center;verticalAlign=middle;whiteSpace=wrap;rounded=0;" parent="1" vertex="1">
          <mxGeometry x="980.5" y="603.5" width="90" height="9" as="geometry" />
        </mxCell>
        <mxCell id="CmySC4CDVAbdQlzhq19Z-39" value="&lt;b style=&quot;border-color: var(--border-color);&quot;&gt;UAML API&lt;/b&gt;" style="text;html=1;strokeColor=none;fillColor=none;align=center;verticalAlign=middle;whiteSpace=wrap;rounded=0;" parent="1" vertex="1">
          <mxGeometry x="1662" y="871" width="90" height="9" as="geometry" />
        </mxCell>
        <mxCell id="CmySC4CDVAbdQlzhq19Z-40" value="" style="sketch=0;outlineConnect=0;fontColor=#232F3E;gradientColor=none;fillColor=#D45B07;strokeColor=none;dashed=0;verticalLabelPosition=bottom;verticalAlign=top;align=center;html=1;fontSize=12;fontStyle=0;aspect=fixed;pointerEvents=1;shape=mxgraph.aws4.ecs_service;" parent="1" vertex="1">
          <mxGeometry x="1682.25" y="815.5" width="39" height="48" as="geometry" />
        </mxCell>
        <mxCell id="CmySC4CDVAbdQlzhq19Z-41" value="&lt;b style=&quot;border-color: var(--border-color);&quot;&gt;UAML API&lt;/b&gt;" style="text;html=1;strokeColor=none;fillColor=none;align=center;verticalAlign=middle;whiteSpace=wrap;rounded=0;" parent="1" vertex="1">
          <mxGeometry x="2008.5" y="867.5" width="90" height="9" as="geometry" />
        </mxCell>
        <mxCell id="CmySC4CDVAbdQlzhq19Z-42" value="" style="sketch=0;outlineConnect=0;fontColor=#232F3E;gradientColor=none;fillColor=#D45B07;strokeColor=none;dashed=0;verticalLabelPosition=bottom;verticalAlign=top;align=center;html=1;fontSize=12;fontStyle=0;aspect=fixed;pointerEvents=1;shape=mxgraph.aws4.ecs_service;" parent="1" vertex="1">
          <mxGeometry x="2028.75" y="812" width="39" height="48" as="geometry" />
        </mxCell>
        <mxCell id="CmySC4CDVAbdQlzhq19Z-43" value="&lt;b style=&quot;border-color: var(--border-color);&quot;&gt;Slicing Portal&lt;/b&gt;" style="text;html=1;strokeColor=none;fillColor=none;align=center;verticalAlign=middle;whiteSpace=wrap;rounded=0;" parent="1" vertex="1">
          <mxGeometry x="1650.5" y="609.5" width="90" height="9" as="geometry" />
        </mxCell>
        <mxCell id="CmySC4CDVAbdQlzhq19Z-44" value="" style="sketch=0;outlineConnect=0;fontColor=#232F3E;gradientColor=none;fillColor=#D45B07;strokeColor=none;dashed=0;verticalLabelPosition=bottom;verticalAlign=top;align=center;html=1;fontSize=12;fontStyle=0;aspect=fixed;pointerEvents=1;shape=mxgraph.aws4.ecs_service;" parent="1" vertex="1">
          <mxGeometry x="1673.75" y="556" width="39" height="48" as="geometry" />
        </mxCell>
        <mxCell id="CmySC4CDVAbdQlzhq19Z-45" value="&lt;b style=&quot;border-color: var(--border-color);&quot;&gt;Slicing Portal&lt;/b&gt;" style="text;html=1;strokeColor=none;fillColor=none;align=center;verticalAlign=middle;whiteSpace=wrap;rounded=0;" parent="1" vertex="1">
          <mxGeometry x="2006.5" y="605.5" width="90" height="9" as="geometry" />
        </mxCell>
        <mxCell id="CmySC4CDVAbdQlzhq19Z-46" value="" style="sketch=0;outlineConnect=0;fontColor=#232F3E;gradientColor=none;fillColor=#D45B07;strokeColor=none;dashed=0;verticalLabelPosition=bottom;verticalAlign=top;align=center;html=1;fontSize=12;fontStyle=0;aspect=fixed;pointerEvents=1;shape=mxgraph.aws4.ecs_service;" parent="1" vertex="1">
          <mxGeometry x="2033.75" y="550" width="39" height="48" as="geometry" />
        </mxCell>
        <mxCell id="CmySC4CDVAbdQlzhq19Z-47" value="api_security/target groups" style="text;html=1;strokeColor=none;fillColor=none;align=center;verticalAlign=middle;whiteSpace=wrap;rounded=0;" parent="1" vertex="1">
          <mxGeometry x="821.25" y="793" width="40" height="20" as="geometry" />
        </mxCell>
        <mxCell id="0QRgCGFWbmD3YyNMxomW-9" value="" style="edgeStyle=orthogonalEdgeStyle;rounded=0;orthogonalLoop=1;jettySize=auto;html=1;entryX=0;entryY=0.5;entryDx=0;entryDy=0;entryPerimeter=0;" edge="1" parent="1" source="0QRgCGFWbmD3YyNMxomW-1" target="A2ULi18Q9b9GqN2XgIJL-12">
          <mxGeometry relative="1" as="geometry">
            <mxPoint x="970" y="190" as="targetPoint" />
          </mxGeometry>
        </mxCell>
        <mxCell id="0QRgCGFWbmD3YyNMxomW-1" value="&lt;b&gt;Kong Gateway&lt;/b&gt;" style="outlineConnect=0;dashed=0;verticalLabelPosition=bottom;verticalAlign=top;align=center;html=1;shape=mxgraph.aws3.api_gateway;fillColor=#D9A741;gradientColor=none;" vertex="1" parent="1">
          <mxGeometry x="1007.75" y="145" width="52.25" height="63" as="geometry" />
        </mxCell>
        <mxCell id="0QRgCGFWbmD3YyNMxomW-7" value="" style="edgeStyle=orthogonalEdgeStyle;rounded=0;orthogonalLoop=1;jettySize=auto;html=1;" edge="1" parent="1" source="0QRgCGFWbmD3YyNMxomW-3" target="0QRgCGFWbmD3YyNMxomW-1">
          <mxGeometry relative="1" as="geometry">
            <mxPoint x="660.625" y="100" as="targetPoint" />
          </mxGeometry>
        </mxCell>
        <mxCell id="0QRgCGFWbmD3YyNMxomW-3" value="&lt;b&gt;SDF&lt;/b&gt;" style="outlineConnect=0;dashed=0;verticalLabelPosition=bottom;verticalAlign=top;align=center;html=1;shape=mxgraph.aws3.storage_gateway;fillColor=#E05243;gradientColor=none;" vertex="1" parent="1">
          <mxGeometry x="891.75" y="30" width="58.75" height="73" as="geometry" />
        </mxCell>
        <mxCell id="0QRgCGFWbmD3YyNMxomW-13" value="S3" style="sketch=0;points=[[0,0,0],[0.25,0,0],[0.5,0,0],[0.75,0,0],[1,0,0],[0,1,0],[0.25,1,0],[0.5,1,0],[0.75,1,0],[1,1,0],[0,0.25,0],[0,0.5,0],[0,0.75,0],[1,0.25,0],[1,0.5,0],[1,0.75,0]];outlineConnect=0;fontColor=#232F3E;gradientColor=#60A337;gradientDirection=north;fillColor=#277116;strokeColor=#ffffff;dashed=0;verticalLabelPosition=bottom;verticalAlign=top;align=center;html=1;fontSize=12;fontStyle=0;aspect=fixed;shape=mxgraph.aws4.resourceIcon;resIcon=mxgraph.aws4.s3;" vertex="1" parent="1">
          <mxGeometry x="168" y="1017" width="58" height="58" as="geometry" />
        </mxCell>
        <mxCell id="0QRgCGFWbmD3YyNMxomW-17" value="" style="sketch=0;outlineConnect=0;fontColor=#232F3E;gradientColor=none;fillColor=#D45B07;strokeColor=none;dashed=0;verticalLabelPosition=bottom;verticalAlign=top;align=center;html=1;fontSize=12;fontStyle=0;aspect=fixed;pointerEvents=1;shape=mxgraph.aws4.ecs_service;" vertex="1" parent="1">
          <mxGeometry x="1005.5" y="550" width="39" height="48" as="geometry" />
        </mxCell>
        <mxCell id="0QRgCGFWbmD3YyNMxomW-19" value="Telus IDP" style="text;html=1;strokeColor=none;fillColor=none;align=center;verticalAlign=middle;whiteSpace=wrap;rounded=0;fontSize=12;" vertex="1" parent="1">
          <mxGeometry x="179" y="652" width="61" height="20" as="geometry" />
        </mxCell>
      </root>
    </mxGraphModel>
  </diagram>
</mxfile>
